<svg data-v-423bf9ae="" xmlns="http://www.w3.org/2000/svg" viewBox="0 0 897.4671626488886 163" class="iconAbove"><!----><!----><!----><g data-v-423bf9ae="" id="c2e029a7-c07e-4996-ae4f-08b9fcaa3df1" fill="white" transform="matrix(5.628517904206723,0,0,5.628517904206723,-2.3639679180398616,85.32645199824296)"><path d="M7.42 8.54L7.42 8.54L7.42 8.54Q7.42 6.87 6.74 5.85L6.74 5.85L6.74 5.85Q6.06 4.82 4.62 4.82L4.62 4.82L4.62 4.82Q3.75 4.82 3.08 5.38L3.08 5.38L3.08 5.38Q2.70 5.96 2.48 6.96L2.48 6.96L2.48 6.96Q2.27 7.95 2.27 8.85L2.27 8.85L2.27 8.85Q2.27 10.50 2.94 11.49L2.94 11.49L2.94 11.49Q3.61 12.49 5.07 12.49L5.07 12.49L5.07 12.49Q5.87 12.49 6.43 11.84L6.43 11.84L6.43 11.84Q7.42 10.68 7.42 8.54ZM4.59 13.80L4.59 13.80L4.59 13.80Q2.55 13.80 1.48 12.45L1.48 12.45L1.48 12.45Q0.42 11.10 0.42 8.91L0.42 8.91L0.42 8.91Q0.42 6.72 1.74 5.12L1.74 5.12L1.74 5.12Q3.05 3.53 5.09 3.53L5.09 3.53L5.09 3.53Q7.13 3.53 8.20 4.90L8.20 4.90L8.20 4.90Q9.27 6.27 9.27 8.47L9.27 8.47L9.27 8.47Q9.27 10.67 7.95 12.24L7.95 12.24L7.95 12.24Q6.64 13.80 4.59 13.80ZM16.94 7.98L16.94 7.98L16.80 11.06L16.80 11.06Q16.80 12.33 17.19 13.55L17.19 13.55L17.19 13.55Q16.80 13.72 16.30 13.72L16.30 13.72L16.30 13.72Q15.11 13.72 15.11 12.39L15.11 12.39L15.11 12.39Q15.11 11.79 15.26 10.37L15.26 10.37L15.26 10.37Q15.41 8.95 15.41 8.58L15.41 8.58L15.41 8.58Q15.41 7.88 14.78 7.88L14.78 7.88L14.78 7.88Q14.32 7.88 13.74 8.55L13.74 8.55L13.74 8.55Q13.16 9.21 12.75 10.03L12.75 10.03L12.75 10.03Q12.33 10.85 12.26 11.38L12.26 11.38L12.26 11.38Q12.32 12.47 12.54 13.47L12.54 13.47L12.54 13.47Q12.10 13.64 11.61 13.64L11.61 13.64L11.61 13.64Q11.13 13.64 10.83 13.41L10.83 13.41L10.83 13.41Q10.53 13.17 10.53 12.76L10.53 12.76L10.53 12.76Q10.53 12.35 10.65 11.28L10.65 11.28L10.65 11.28Q10.78 10.21 10.78 9.15L10.78 9.15L10.78 9.15Q10.78 8.09 10.46 6.72L10.46 6.72L10.46 6.72Q10.91 6.55 11.41 6.55L11.41 6.55L11.41 6.55Q11.91 6.55 12.23 6.85L12.23 6.85L12.23 6.85Q12.54 7.14 12.54 7.57L12.54 7.57L12.54 7.57Q12.54 8.01 12.43 8.96L12.43 8.96L12.43 8.96Q12.96 7.97 13.82 7.22L13.82 7.22L13.82 7.22Q14.67 6.47 15.53 6.47L15.53 6.47L15.53 6.47Q16.94 6.47 16.94 7.98ZM18.77 3.30L18.77 3.30L18.77 3.30Q19.22 3.14 19.70 3.14L19.70 3.14L19.70 3.14Q20.17 3.14 20.49 3.45L20.49 3.45L20.49 3.45Q20.80 3.77 20.80 4.31L20.80 4.31L20.80 4.31Q20.80 4.84 20.66 6.46L20.66 6.46L20.66 6.46Q20.51 8.08 20.51 9.00L20.51 9.00L20.51 9.00Q20.51 11.28 20.83 13.47L20.83 13.47L20.83 13.47Q20.38 13.64 19.88 13.64L19.88 13.64L19.88 13.64Q18.80 13.64 18.80 12.59L18.80 12.59L18.80 12.59Q18.80 12.08 18.96 10.61L18.96 10.61L18.96 10.61Q19.11 9.13 19.11 8.23L19.11 8.23L19.11 8.23Q19.11 5.25 18.77 3.30ZM22.44 6.68L22.44 6.68L22.44 6.68Q22.89 6.55 23.35 6.55L23.35 6.55L23.35 6.55Q23.80 6.55 24.12 6.83L24.12 6.83L24.12 6.83Q24.44 7.11 24.44 7.55L24.44 7.55L24.44 7.55Q24.44 7.99 24.30 9.08L24.30 9.08L24.30 9.08Q24.15 10.16 24.15 10.77L24.15 10.77L24.15 10.77Q24.15 12.33 24.44 13.47L24.44 13.47L24.44 13.47Q24.01 13.64 23.51 13.64L23.51 13.64L23.51 13.64Q23.00 13.64 22.71 13.41L22.71 13.41L22.71 13.41Q22.41 13.17 22.41 12.73L22.41 12.73L22.41 12.73Q22.41 12.29 22.58 11.28L22.58 11.28L22.58 11.28Q22.75 10.28 22.75 9.62L22.75 9.62L22.75 9.62Q22.75 7.87 22.44 6.68ZM22.62 3.51L22.62 3.51L22.62 3.51Q23.11 3.29 23.59 3.29L23.59 3.29L23.59 3.29Q24.07 3.29 24.30 3.54L24.30 3.54L24.30 3.54Q24.53 3.78 24.53 4.26L24.53 4.26L24.53 4.26Q24.53 4.73 24.21 5.10L24.21 5.10L24.21 5.10Q23.90 5.46 23.39 5.46L23.39 5.46L23.39 5.46Q22.36 5.46 22.36 4.38L22.36 4.38L22.36 4.38Q22.36 3.91 22.62 3.51ZM32.48 7.98L32.48 7.98L32.34 11.06L32.34 11.06Q32.34 12.33 32.73 13.55L32.73 13.55L32.73 13.55Q32.34 13.72 31.84 13.72L31.84 13.72L31.84 13.72Q30.65 13.72 30.65 12.39L30.65 12.39L30.65 12.39Q30.65 11.79 30.80 10.37L30.80 10.37L30.80 10.37Q30.95 8.95 30.95 8.58L30.95 8.58L30.95 8.58Q30.95 7.88 30.32 7.88L30.32 7.88L30.32 7.88Q29.86 7.88 29.28 8.55L29.28 8.55L29.28 8.55Q28.70 9.21 28.29 10.03L28.29 10.03L28.29 10.03Q27.87 10.85 27.80 11.38L27.80 11.38L27.80 11.38Q27.86 12.47 28.08 13.47L28.08 13.47L28.08 13.47Q27.64 13.64 27.15 13.64L27.15 13.64L27.15 13.64Q26.67 13.64 26.37 13.41L26.37 13.41L26.37 13.41Q26.07 13.17 26.07 12.76L26.07 12.76L26.07 12.76Q26.07 12.35 26.19 11.28L26.19 11.28L26.19 11.28Q26.32 10.21 26.32 9.15L26.32 9.15L26.32 9.15Q26.32 8.09 26.00 6.72L26.00 6.72L26.00 6.72Q26.45 6.55 26.95 6.55L26.95 6.55L26.95 6.55Q27.45 6.55 27.77 6.85L27.77 6.85L27.77 6.85Q28.08 7.14 28.08 7.57L28.08 7.57L28.08 7.57Q28.08 8.01 27.97 8.96L27.97 8.96L27.97 8.96Q28.50 7.97 29.36 7.22L29.36 7.22L29.36 7.22Q30.21 6.47 31.07 6.47L31.07 6.47L31.07 6.47Q32.48 6.47 32.48 7.98ZM35.42 10.46L35.42 10.46L35.42 10.46Q35.42 11.47 35.74 12.05L35.74 12.05L35.74 12.05Q36.06 12.63 36.82 12.63L36.82 12.63L36.82 12.63Q37.58 12.63 38.00 12.12L38.00 12.12L38.00 12.12Q38.43 11.61 38.43 10.88L38.43 10.88L38.43 10.88Q38.91 10.88 39.26 11.12L39.26 11.12L39.26 11.12Q39.61 11.35 39.61 11.77L39.61 11.77L39.61 11.77Q39.61 12.64 38.68 13.22L38.68 13.22L38.68 13.22Q37.76 13.80 36.74 13.80L36.74 13.80L36.74 13.80Q35.14 13.80 34.43 12.94L34.43 12.94L34.43 12.94Q33.71 12.08 33.71 10.39L33.71 10.39L33.71 10.39Q33.71 8.69 34.67 7.54L34.67 7.54L34.67 7.54Q35.63 6.38 37.23 6.38L37.23 6.38L37.23 6.38Q38.32 6.38 38.98 6.88L38.98 6.88L38.98 6.88Q39.65 7.38 39.65 8.42L39.65 8.42L39.65 8.42Q39.65 9.46 38.70 9.99L38.70 9.99L38.70 9.99Q37.76 10.51 36.40 10.51L36.40 10.51L36.40 10.51Q35.92 10.51 35.42 10.46ZM35.43 9.35L35.43 9.35L35.43 9.35Q35.85 9.44 36.32 9.44L36.32 9.44L36.32 9.44Q37.32 9.44 38.01 9.06L38.01 9.06L38.01 9.06Q38.09 8.72 38.09 8.53L38.09 8.53L38.09 8.53Q38.09 8.04 37.74 7.78L37.74 7.78L37.74 7.78Q37.39 7.53 36.79 7.53L36.79 7.53L36.79 7.53Q36.18 7.53 35.69 7.92L35.69 7.92L35.69 7.92Q35.43 8.65 35.43 9.35ZM47.24 13.47L47.24 13.47L47.24 13.47Q46.79 13.64 46.28 13.64L46.28 13.64L46.28 13.64Q45.78 13.64 45.41 13.31L45.41 13.31L45.41 13.31Q45.04 12.99 45.04 12.43L45.04 12.43L45.04 12.43Q45.04 11.87 45.18 10.28L45.18 10.28L45.18 10.28Q45.32 8.69 45.32 7.74L45.32 7.74L45.32 7.74Q45.32 5.29 45.02 3.86L45.02 3.86L45.02 3.86Q45.47 3.70 45.98 3.70L45.98 3.70L45.98 3.70Q46.48 3.70 46.85 4.02L46.85 4.02L46.85 4.02Q47.22 4.34 47.22 4.90L47.22 4.90L47.22 4.90Q47.22 5.46 47.08 7.05L47.08 7.05L47.08 7.05Q46.94 8.64 46.94 9.59L46.94 9.59L46.94 9.59Q46.94 12.04 47.24 13.47ZM55.33 7.98L55.33 7.98L55.19 11.06L55.19 11.06Q55.19 12.33 55.58 13.55L55.58 13.55L55.58 13.55Q55.19 13.72 54.68 13.72L54.68 13.72L54.68 13.72Q53.49 13.72 53.49 12.39L53.49 12.39L53.49 12.39Q53.49 11.79 53.65 10.37L53.65 10.37L53.65 10.37Q53.80 8.95 53.80 8.58L53.80 8.58L53.80 8.58Q53.80 7.88 53.17 7.88L53.17 7.88L53.17 7.88Q52.71 7.88 52.13 8.55L52.13 8.55L52.13 8.55Q51.55 9.21 51.14 10.03L51.14 10.03L51.14 10.03Q50.72 10.85 50.65 11.38L50.65 11.38L50.65 11.38Q50.71 12.47 50.93 13.47L50.93 13.47L50.93 13.47Q50.48 13.64 50.00 13.64L50.00 13.64L50.00 13.64Q49.52 13.64 49.22 13.41L49.22 13.41L49.22 13.41Q48.92 13.17 48.92 12.76L48.92 12.76L48.92 12.76Q48.92 12.35 49.04 11.28L49.04 11.28L49.04 11.28Q49.17 10.21 49.17 9.15L49.17 9.15L49.17 9.15Q49.17 8.09 48.85 6.72L48.85 6.72L48.85 6.72Q49.29 6.55 49.80 6.55L49.80 6.55L49.80 6.55Q50.30 6.55 50.62 6.85L50.62 6.85L50.62 6.85Q50.93 7.14 50.93 7.57L50.93 7.57L50.93 7.57Q50.93 8.01 50.82 8.96L50.82 8.96L50.82 8.96Q51.35 7.97 52.21 7.22L52.21 7.22L52.21 7.22Q53.06 6.47 53.91 6.47L53.91 6.47L53.91 6.47Q55.33 6.47 55.33 7.98ZM62.48 11.42L62.48 11.42L62.48 11.42Q61.99 12.38 61.25 13.05L61.25 13.05L61.25 13.05Q60.51 13.72 59.77 13.72L59.77 13.72L59.77 13.72Q59.02 13.72 58.63 13.21L58.63 13.21L58.63 13.21Q58.23 12.70 58.06 11.89L58.06 11.89L58.06 11.89Q57.89 11.09 57.76 10.23L57.76 10.23L57.76 10.23Q57.62 9.38 57.30 8.57L57.30 8.57L57.30 8.57Q56.98 7.76 56.42 7.35L56.42 7.35L56.42 7.35Q56.60 7.01 56.97 6.78L56.97 6.78L56.97 6.78Q57.33 6.55 57.75 6.55L57.75 6.55L57.75 6.55Q58.41 6.55 58.81 7.40L58.81 7.40L58.81 7.40Q59.22 8.25 59.34 9.27L59.34 9.27L59.34 9.27Q59.46 10.29 59.61 11.25L59.61 11.25L59.61 11.25Q59.75 12.21 59.95 12.35L59.95 12.35L59.95 12.35Q60.42 12.32 60.78 11.74L60.78 11.74L60.78 11.74Q61.14 11.16 61.31 10.33L61.31 10.33L61.31 10.33Q61.61 8.82 61.61 7.97L61.61 7.97L61.61 7.97Q61.61 7.11 61.53 6.65L61.53 6.65L61.53 6.65Q62.02 6.55 62.37 6.55L62.37 6.55L62.37 6.55Q63.57 6.55 63.57 7.70L63.57 7.70L63.57 7.70Q63.57 8.43 63.27 9.44L63.27 9.44L63.27 9.44Q62.97 10.46 62.48 11.42ZM65.70 10.46L65.70 10.46L65.70 10.46Q65.70 11.47 66.02 12.05L66.02 12.05L66.02 12.05Q66.35 12.63 67.10 12.63L67.10 12.63L67.10 12.63Q67.86 12.63 68.29 12.12L68.29 12.12L68.29 12.12Q68.71 11.61 68.71 10.88L68.71 10.88L68.71 10.88Q69.19 10.88 69.54 11.12L69.54 11.12L69.54 11.12Q69.89 11.35 69.89 11.77L69.89 11.77L69.89 11.77Q69.89 12.64 68.96 13.22L68.96 13.22L68.96 13.22Q68.04 13.80 67.02 13.80L67.02 13.80L67.02 13.80Q65.42 13.80 64.71 12.94L64.71 12.94L64.71 12.94Q63.99 12.08 63.99 10.39L63.99 10.39L63.99 10.39Q63.99 8.69 64.95 7.54L64.95 7.54L64.95 7.54Q65.91 6.38 67.51 6.38L67.51 6.38L67.51 6.38Q68.60 6.38 69.27 6.88L69.27 6.88L69.27 6.88Q69.93 7.38 69.93 8.42L69.93 8.42L69.93 8.42Q69.93 9.46 68.98 9.99L68.98 9.99L68.98 9.99Q68.04 10.51 66.68 10.51L66.68 10.51L66.68 10.51Q66.21 10.51 65.70 10.46ZM65.72 9.35L65.72 9.35L65.72 9.35Q66.14 9.44 66.60 9.44L66.60 9.44L66.60 9.44Q67.61 9.44 68.29 9.06L68.29 9.06L68.29 9.06Q68.38 8.72 68.38 8.53L68.38 8.53L68.38 8.53Q68.38 8.04 68.03 7.78L68.03 7.78L68.03 7.78Q67.68 7.53 67.07 7.53L67.07 7.53L67.07 7.53Q66.46 7.53 65.97 7.92L65.97 7.92L65.97 7.92Q65.72 8.65 65.72 9.35ZM72.49 11.09L72.49 11.09L72.49 11.09Q72.45 11.28 72.45 11.41L72.45 11.41L72.45 11.41Q72.45 11.98 72.79 12.29L72.79 12.29L72.79 12.29Q73.14 12.60 73.72 12.60L73.72 12.60L73.72 12.60Q74.30 12.60 74.68 12.38L74.68 12.38L74.68 12.38Q75.07 12.17 75.07 11.73L75.07 11.73L75.07 11.73Q75.07 11.30 74.66 11.04L74.66 11.04L74.66 11.04Q74.24 10.78 73.66 10.63L73.66 10.63L73.66 10.63Q73.08 10.47 72.49 10.28L72.49 10.28L72.49 10.28Q71.90 10.09 71.49 9.69L71.49 9.69L71.49 9.69Q71.08 9.28 71.08 8.67L71.08 8.67L71.08 8.67Q71.08 7.70 72.10 7.04L72.10 7.04L72.10 7.04Q73.12 6.38 74.24 6.38L74.24 6.38L74.24 6.38Q75.47 6.38 76.12 6.89L76.12 6.89L76.12 6.89Q76.50 7.18 76.50 7.67L76.50 7.67L76.50 7.67Q76.50 8.15 76.13 8.45L76.13 8.45L76.13 8.45Q75.75 8.75 75.22 8.75L75.22 8.75L75.22 8.75Q75.11 8.75 74.94 8.72L74.94 8.72L74.94 8.72Q74.98 8.54 74.98 8.40L74.98 8.40L74.98 8.40Q74.98 7.99 74.68 7.78L74.68 7.78L74.68 7.78Q74.37 7.57 73.84 7.57L73.84 7.57L73.84 7.57Q73.32 7.57 72.88 7.78L72.88 7.78L72.88 7.78Q72.72 8.01 72.72 8.36L72.72 8.36L72.72 8.36Q72.72 8.71 73.12 8.93L73.12 8.93L73.12 8.93Q73.53 9.14 74.11 9.30L74.11 9.30L74.11 9.30Q74.69 9.46 75.28 9.67L75.28 9.67L75.28 9.67Q75.87 9.87 76.27 10.30L76.27 10.30L76.27 10.30Q76.68 10.72 76.68 11.37L76.68 11.37L76.68 11.37Q76.68 12.42 75.64 13.11L75.64 13.11L75.64 13.11Q74.59 13.80 73.49 13.80L73.49 13.80L73.49 13.80Q72.38 13.80 71.66 13.41L71.66 13.41L71.66 13.41Q70.94 13.01 70.94 12.19L70.94 12.19L70.94 12.19Q70.94 11.69 71.31 11.38L71.31 11.38L71.31 11.38Q71.68 11.06 72.21 11.06L72.21 11.06L72.21 11.06Q72.32 11.06 72.49 11.09ZM78.16 4.49L78.16 4.49L78.16 4.49Q78.61 4.27 79.07 4.27L79.07 4.27L79.07 4.27Q79.53 4.27 79.82 4.56L79.82 4.56L79.82 4.56Q80.11 4.86 80.11 5.43L80.11 5.43L80.11 5.43Q80.11 6.01 80.04 6.73L80.04 6.73L80.04 6.73Q81.09 6.73 82.04 6.44L82.04 6.44L82.04 6.44Q82.21 6.72 82.21 7.09L82.21 7.09L82.21 7.09Q82.21 7.46 81.88 7.69L81.88 7.69L81.88 7.69Q81.55 7.92 81.21 7.92L81.21 7.92L81.21 7.92Q80.88 7.92 80.46 7.84L80.46 7.84L80.46 7.84Q80.04 7.76 79.91 7.74L79.91 7.74L79.91 7.74Q79.90 7.87 79.84 8.25L79.84 8.25L79.84 8.25Q79.77 8.62 79.73 8.90L79.73 8.90L79.73 8.90Q79.62 9.67 79.62 10.56L79.62 10.56L79.62 10.56Q79.62 12.47 80.86 12.47L80.86 12.47L80.86 12.47Q81.33 12.47 81.93 12.15L81.93 12.15L81.93 12.15Q82.11 12.42 82.11 12.84L82.11 12.84L82.11 12.84Q82.11 13.26 81.66 13.49L81.66 13.49L81.66 13.49Q81.20 13.72 80.57 13.72L80.57 13.72L80.57 13.72Q78.11 13.72 78.11 10.92L78.11 10.92L78.11 10.92Q78.11 10.51 78.23 9.45L78.23 9.45L78.23 9.45Q78.34 8.39 78.34 7.73L78.34 7.73L78.34 7.73Q77.67 7.77 77.27 7.97L77.27 7.97L77.27 7.97Q77.10 7.71 77.10 7.39L77.10 7.39L77.10 7.39Q77.10 7.06 77.34 6.84L77.34 6.84L77.34 6.84Q77.57 6.62 77.92 6.62L77.92 6.62L77.92 6.62Q78.27 6.62 78.39 6.64L78.39 6.64L78.39 6.64Q78.40 6.52 78.40 6.34L78.40 6.34L78.40 6.34Q78.40 5.29 78.16 4.49ZM93.84 7.98L93.84 7.98L93.70 10.98L93.70 10.98Q93.70 12.33 94.09 13.55L94.09 13.55L94.09 13.55Q93.70 13.72 93.20 13.72L93.20 13.72L93.20 13.72Q92.01 13.72 92.01 12.39L92.01 12.39L92.01 12.39Q92.01 11.79 92.16 10.37L92.16 10.37L92.16 10.37Q92.32 8.95 92.32 8.58L92.32 8.58L92.32 8.58Q92.32 7.88 91.74 7.88L91.74 7.88L91.74 7.88Q91.11 7.88 90.24 9.17L90.24 9.17L90.24 9.17Q89.36 10.46 89.36 11.19L89.36 11.19L89.36 11.19Q89.43 12.29 89.75 13.38L89.75 13.38L89.75 13.38Q89.22 13.55 88.86 13.55L88.86 13.55L88.86 13.55Q87.67 13.55 87.67 12.22L87.67 12.22L87.67 12.22Q87.67 11.66 87.82 10.35L87.82 10.35L87.82 10.35Q87.98 9.03 87.98 8.69L87.98 8.69L87.98 8.69Q87.98 7.99 87.35 7.99L87.35 7.99L87.35 7.99Q86.91 7.99 86.35 8.64L86.35 8.64L86.35 8.64Q85.79 9.28 85.41 10.06L85.41 10.06L85.41 10.06Q85.02 10.84 84.99 11.30L84.99 11.30L84.99 11.30Q85.06 12.50 85.27 13.47L85.27 13.47L85.27 13.47Q84.83 13.64 84.34 13.64L84.34 13.64L84.34 13.64Q83.86 13.64 83.56 13.41L83.56 13.41L83.56 13.41Q83.26 13.17 83.26 12.76L83.26 12.76L83.26 12.76Q83.26 12.35 83.38 11.28L83.38 11.28L83.38 11.28Q83.51 10.21 83.51 9.15L83.51 9.15L83.51 9.15Q83.51 8.09 83.19 6.72L83.19 6.72L83.19 6.72Q83.64 6.55 84.14 6.55L84.14 6.55L84.14 6.55Q84.64 6.55 84.96 6.85L84.96 6.85L84.96 6.85Q85.27 7.14 85.27 7.63L85.27 7.63L85.27 7.63Q85.27 7.88 85.18 8.86L85.18 8.86L85.18 8.86Q85.69 7.94 86.49 7.26L86.49 7.26L86.49 7.26Q87.29 6.58 88.09 6.58L88.09 6.58L88.09 6.58Q89.50 6.58 89.50 8.09L89.50 8.09L89.50 8.09Q89.50 8.47 89.46 8.93L89.46 8.93L89.46 8.93Q89.98 7.95 90.80 7.21L90.80 7.21L90.80 7.21Q91.62 6.47 92.43 6.47L92.43 6.47L92.43 6.47Q93.84 6.47 93.84 7.98ZM96.78 10.46L96.78 10.46L96.78 10.46Q96.78 11.47 97.10 12.05L97.10 12.05L97.10 12.05Q97.43 12.63 98.18 12.63L98.18 12.63L98.18 12.63Q98.94 12.63 99.37 12.12L99.37 12.12L99.37 12.12Q99.79 11.61 99.79 10.88L99.79 10.88L99.79 10.88Q100.27 10.88 100.62 11.12L100.62 11.12L100.62 11.12Q100.97 11.35 100.97 11.77L100.97 11.77L100.97 11.77Q100.97 12.64 100.04 13.22L100.04 13.22L100.04 13.22Q99.12 13.80 98.10 13.80L98.10 13.80L98.10 13.80Q96.50 13.80 95.79 12.94L95.79 12.94L95.79 12.94Q95.07 12.08 95.07 10.39L95.07 10.39L95.07 10.39Q95.07 8.69 96.03 7.54L96.03 7.54L96.03 7.54Q96.99 6.38 98.59 6.38L98.59 6.38L98.59 6.38Q99.68 6.38 100.35 6.88L100.35 6.88L100.35 6.88Q101.01 7.38 101.01 8.42L101.01 8.42L101.01 8.42Q101.01 9.46 100.07 9.99L100.07 9.99L100.07 9.99Q99.12 10.51 97.76 10.51L97.76 10.51L97.76 10.51Q97.29 10.51 96.78 10.46ZM96.80 9.35L96.80 9.35L96.80 9.35Q97.22 9.44 97.68 9.44L97.68 9.44L97.68 9.44Q98.69 9.44 99.37 9.06L99.37 9.06L99.37 9.06Q99.46 8.72 99.46 8.53L99.46 8.53L99.46 8.53Q99.46 8.04 99.11 7.78L99.11 7.78L99.11 7.78Q98.76 7.53 98.15 7.53L98.15 7.53L98.15 7.53Q97.54 7.53 97.05 7.92L97.05 7.92L97.05 7.92Q96.80 8.65 96.80 9.35ZM108.85 7.98L108.85 7.98L108.71 11.06L108.71 11.06Q108.71 12.33 109.10 13.55L109.10 13.55L109.10 13.55Q108.71 13.72 108.21 13.72L108.21 13.72L108.21 13.72Q107.02 13.72 107.02 12.39L107.02 12.39L107.02 12.39Q107.02 11.79 107.17 10.37L107.17 10.37L107.17 10.37Q107.32 8.95 107.32 8.58L107.32 8.58L107.32 8.58Q107.32 7.88 106.69 7.88L106.69 7.88L106.69 7.88Q106.23 7.88 105.65 8.55L105.65 8.55L105.65 8.55Q105.07 9.21 104.66 10.03L104.66 10.03L104.66 10.03Q104.24 10.85 104.17 11.38L104.17 11.38L104.17 11.38Q104.23 12.47 104.45 13.47L104.45 13.47L104.45 13.47Q104.01 13.64 103.52 13.64L103.52 13.64L103.52 13.64Q103.04 13.64 102.74 13.41L102.74 13.41L102.74 13.41Q102.44 13.17 102.44 12.76L102.44 12.76L102.44 12.76Q102.44 12.35 102.56 11.28L102.56 11.28L102.56 11.28Q102.69 10.21 102.69 9.15L102.69 9.15L102.69 9.15Q102.69 8.09 102.37 6.72L102.37 6.72L102.37 6.72Q102.82 6.55 103.32 6.55L103.32 6.55L103.32 6.55Q103.82 6.55 104.14 6.85L104.14 6.85L104.14 6.85Q104.45 7.14 104.45 7.57L104.45 7.57L104.45 7.57Q104.45 8.01 104.34 8.96L104.34 8.96L104.34 8.96Q104.87 7.97 105.73 7.22L105.73 7.22L105.73 7.22Q106.58 6.47 107.44 6.47L107.44 6.47L107.44 6.47Q108.85 6.47 108.85 7.98ZM111.08 4.49L111.08 4.49L111.08 4.49Q111.52 4.27 111.99 4.27L111.99 4.27L111.99 4.27Q112.45 4.27 112.74 4.56L112.74 4.56L112.74 4.56Q113.02 4.86 113.02 5.43L113.02 5.43L113.02 5.43Q113.02 6.01 112.95 6.73L112.95 6.73L112.95 6.73Q114.00 6.73 114.95 6.44L114.95 6.44L114.95 6.44Q115.12 6.72 115.12 7.09L115.12 7.09L115.12 7.09Q115.12 7.46 114.79 7.69L114.79 7.69L114.79 7.69Q114.46 7.92 114.13 7.92L114.13 7.92L114.13 7.92Q113.79 7.92 113.37 7.84L113.37 7.84L113.37 7.84Q112.95 7.76 112.83 7.74L112.83 7.74L112.83 7.74Q112.81 7.87 112.75 8.25L112.75 8.25L112.75 8.25Q112.69 8.62 112.64 8.90L112.64 8.90L112.64 8.90Q112.53 9.67 112.53 10.56L112.53 10.56L112.53 10.56Q112.53 12.47 113.78 12.47L113.78 12.47L113.78 12.47Q114.24 12.47 114.84 12.15L114.84 12.15L114.84 12.15Q115.02 12.42 115.02 12.84L115.02 12.84L115.02 12.84Q115.02 13.26 114.57 13.49L114.57 13.49L114.57 13.49Q114.11 13.72 113.48 13.72L113.48 13.72L113.48 13.72Q111.02 13.72 111.02 10.92L111.02 10.92L111.02 10.92Q111.02 10.51 111.14 9.45L111.14 9.45L111.14 9.45Q111.26 8.39 111.26 7.73L111.26 7.73L111.26 7.73Q110.59 7.77 110.18 7.97L110.18 7.97L110.18 7.97Q110.01 7.71 110.01 7.39L110.01 7.39L110.01 7.39Q110.01 7.06 110.25 6.84L110.25 6.84L110.25 6.84Q110.49 6.62 110.84 6.62L110.84 6.62L110.84 6.62Q111.19 6.62 111.30 6.64L111.30 6.64L111.30 6.64Q111.31 6.52 111.31 6.34L111.31 6.34L111.31 6.34Q111.31 5.29 111.08 4.49ZM117.31 11.09L117.31 11.09L117.31 11.09Q117.26 11.28 117.26 11.41L117.26 11.41L117.26 11.41Q117.26 11.98 117.61 12.29L117.61 12.29L117.61 12.29Q117.95 12.60 118.53 12.60L118.53 12.60L118.53 12.60Q119.11 12.60 119.50 12.38L119.50 12.38L119.50 12.38Q119.88 12.17 119.88 11.73L119.88 11.73L119.88 11.73Q119.88 11.30 119.47 11.04L119.47 11.04L119.47 11.04Q119.06 10.78 118.48 10.63L118.48 10.63L118.48 10.63Q117.89 10.47 117.31 10.28L117.31 10.28L117.31 10.28Q116.72 10.09 116.31 9.69L116.31 9.69L116.31 9.69Q115.89 9.28 115.89 8.67L115.89 8.67L115.89 8.67Q115.89 7.70 116.91 7.04L116.91 7.04L116.91 7.04Q117.94 6.38 119.06 6.38L119.06 6.38L119.06 6.38Q120.29 6.38 120.93 6.89L120.93 6.89L120.93 6.89Q121.31 7.18 121.31 7.67L121.31 7.67L121.31 7.67Q121.31 8.15 120.94 8.45L120.94 8.45L120.94 8.45Q120.57 8.75 120.04 8.75L120.04 8.75L120.04 8.75Q119.92 8.75 119.76 8.72L119.76 8.72L119.76 8.72Q119.80 8.54 119.80 8.40L119.80 8.40L119.80 8.40Q119.80 7.99 119.49 7.78L119.49 7.78L119.49 7.78Q119.18 7.57 118.66 7.57L118.66 7.57L118.66 7.57Q118.13 7.57 117.70 7.78L117.70 7.78L117.70 7.78Q117.53 8.01 117.53 8.36L117.53 8.36L117.53 8.36Q117.53 8.71 117.94 8.93L117.94 8.93L117.94 8.93Q118.34 9.14 118.92 9.30L118.92 9.30L118.92 9.30Q119.50 9.46 120.09 9.67L120.09 9.67L120.09 9.67Q120.68 9.87 121.09 10.30L121.09 10.30L121.09 10.30Q121.49 10.72 121.49 11.37L121.49 11.37L121.49 11.37Q121.49 12.42 120.45 13.11L120.45 13.11L120.45 13.11Q119.41 13.80 118.30 13.80L118.30 13.80L118.30 13.80Q117.19 13.80 116.47 13.41L116.47 13.41L116.47 13.41Q115.75 13.01 115.75 12.19L115.75 12.19L115.75 12.19Q115.75 11.69 116.12 11.38L116.12 11.38L116.12 11.38Q116.49 11.06 117.03 11.06L117.03 11.06L117.03 11.06Q117.14 11.06 117.31 11.09ZM131.50 8.99L131.50 8.99L133.00 8.88L133.00 8.88Q133.84 8.88 133.84 9.73L133.84 9.73L133.84 9.73Q133.84 10.22 133.71 11.26L133.71 11.26L133.71 11.26Q133.59 12.29 133.59 12.94L133.59 12.94L133.59 12.94Q133.24 12.99 132.03 13.36L132.03 13.36L132.03 13.36Q130.82 13.72 130.00 13.72L130.00 13.72L130.00 13.72Q128.02 13.72 127.00 12.49L127.00 12.49L127.00 12.49Q125.99 11.26 125.99 9.13L125.99 9.13L125.99 9.13Q125.99 7.62 126.54 6.36L126.54 6.36L126.54 6.36Q127.09 5.10 128.18 4.31L128.18 4.31L128.18 4.31Q129.28 3.53 130.60 3.53L130.60 3.53L130.60 3.53Q131.92 3.53 132.81 4.14L132.81 4.14L132.81 4.14Q133.70 4.76 133.70 5.81L133.70 5.81L133.70 5.81Q133.70 6.40 133.36 6.80L133.36 6.80L133.36 6.80Q133.01 7.20 132.48 7.20L132.48 7.20L132.48 7.20Q131.95 7.20 131.74 7.07L131.74 7.07L131.74 7.07Q131.78 6.82 131.78 6.57L131.78 6.57L131.78 6.57Q131.78 5.82 131.36 5.36L131.36 5.36L131.36 5.36Q130.94 4.89 130.17 4.89L130.17 4.89L130.17 4.89Q129.40 4.89 128.72 5.40L128.72 5.40L128.72 5.40Q128.31 5.98 128.09 6.97L128.09 6.97L128.09 6.97Q127.86 7.97 127.86 8.90L127.86 8.90L127.86 8.90Q127.86 10.42 128.45 11.39L128.45 11.39L128.45 11.39Q129.04 12.36 130.31 12.36L130.31 12.36L130.31 12.36Q131.25 12.36 132.06 11.82L132.06 11.82L132.06 11.82Q132.12 11.27 132.12 10.25L132.12 10.25L132.12 10.25Q131.56 10.42 131.25 10.42L131.25 10.42L131.25 10.42Q130.48 10.42 130.48 9.60L130.48 9.60L130.48 9.60Q130.48 9.25 130.62 8.86L130.62 8.86L130.62 8.86Q131.00 8.99 131.50 8.99ZM135.42 12.21L135.42 12.21L135.56 9.30L135.56 9.30Q135.56 7.94 135.17 6.72L135.17 6.72L135.17 6.72Q135.56 6.55 136.14 6.55L136.14 6.55L136.14 6.55Q137.26 6.55 137.26 7.80L137.26 7.80L137.26 7.80Q137.26 8.50 137.10 9.77L137.10 9.77L137.10 9.77Q136.95 11.03 136.95 11.61L136.95 11.61L136.95 11.61Q136.95 12.31 137.58 12.31L137.58 12.31L137.58 12.31Q137.96 12.31 138.47 11.67L138.47 11.67L138.47 11.67Q138.98 11.03 139.35 10.24L139.35 10.24L139.35 10.24Q139.72 9.45 139.79 8.95L139.79 8.95L139.79 8.95Q139.71 7.41 139.55 6.72L139.55 6.72L139.55 6.72Q140.00 6.55 140.47 6.55L140.47 6.55L140.47 6.55Q140.94 6.55 141.25 6.85L141.25 6.85L141.25 6.85Q141.57 7.14 141.57 7.57L141.57 7.57L141.57 7.57Q141.57 8.01 141.44 9.02L141.44 9.02L141.44 9.02Q141.32 10.02 141.32 11.12L141.32 11.12L141.32 11.12Q141.32 12.22 141.57 13.47L141.57 13.47L141.57 13.47Q141.02 13.64 140.59 13.64L140.59 13.64L140.59 13.64Q139.72 13.64 139.72 12.49L139.72 12.49L139.72 12.49Q139.72 11.98 139.83 11.09L139.83 11.09L139.83 11.09Q139.27 12.28 138.47 13.00L138.47 13.00L138.47 13.00Q137.66 13.72 136.84 13.72L136.84 13.72L136.84 13.72Q135.42 13.72 135.42 12.21ZM143.05 6.68L143.05 6.68L143.05 6.68Q143.50 6.55 143.96 6.55L143.96 6.55L143.96 6.55Q144.41 6.55 144.73 6.83L144.73 6.83L144.73 6.83Q145.05 7.11 145.05 7.55L145.05 7.55L145.05 7.55Q145.05 7.99 144.91 9.08L144.91 9.08L144.91 9.08Q144.76 10.16 144.76 10.77L144.76 10.77L144.76 10.77Q144.76 12.33 145.05 13.47L145.05 13.47L145.05 13.47Q144.62 13.64 144.12 13.64L144.12 13.64L144.12 13.64Q143.61 13.64 143.32 13.41L143.32 13.41L143.32 13.41Q143.02 13.17 143.02 12.73L143.02 12.73L143.02 12.73Q143.02 12.29 143.19 11.28L143.19 11.28L143.19 11.28Q143.36 10.28 143.36 9.62L143.36 9.62L143.36 9.62Q143.36 7.87 143.05 6.68ZM143.23 3.51L143.23 3.51L143.23 3.51Q143.72 3.29 144.20 3.29L144.20 3.29L144.20 3.29Q144.68 3.29 144.91 3.54L144.91 3.54L144.91 3.54Q145.14 3.78 145.14 4.26L145.14 4.26L145.14 4.26Q145.14 4.73 144.82 5.10L144.82 5.10L144.82 5.10Q144.51 5.46 144.00 5.46L144.00 5.46L144.00 5.46Q142.97 5.46 142.97 4.38L142.97 4.38L142.97 4.38Q142.97 3.91 143.23 3.51ZM151.00 3.30L151.00 3.30L151.00 3.30Q151.45 3.14 151.93 3.14L151.93 3.14L151.93 3.14Q152.40 3.14 152.71 3.45L152.71 3.45L152.71 3.45Q153.02 3.77 153.02 4.24L153.02 4.24L153.02 4.24Q153.02 4.70 152.88 6.45L152.88 6.45L152.88 6.45Q152.74 8.19 152.74 9.88L152.74 9.88L152.74 9.88Q152.74 11.56 153.08 13.47L153.08 13.47L153.08 13.47Q152.57 13.64 152.03 13.64L152.03 13.64L152.03 13.64Q151.10 13.64 151.10 12.33L151.10 12.33L151.10 12.33Q151.10 11.90 151.28 10.78L151.28 10.78L151.28 10.78Q150.70 12.03 150.24 12.63L150.24 12.63L150.24 12.63Q149.79 13.23 149.36 13.48L149.36 13.48L149.36 13.48Q148.93 13.72 148.46 13.72L148.46 13.72L148.46 13.72Q147.39 13.72 146.83 12.94L146.83 12.94L146.83 12.94Q146.26 12.15 146.26 11.00L146.26 11.00L146.26 11.00Q146.26 9.86 146.67 8.84L146.67 8.84L146.67 8.84Q147.08 7.83 147.92 7.15L147.92 7.15L147.92 7.15Q148.75 6.47 149.69 6.47L149.69 6.47L149.69 6.47Q150.63 6.47 151.31 6.72L151.31 6.72L151.31 6.72Q151.28 4.91 151.00 3.30ZM151.31 7.91L151.31 7.91L151.31 7.91Q150.63 7.66 149.83 7.66L149.83 7.66L149.83 7.66Q149.03 7.66 148.46 8.12L148.46 8.12L148.46 8.12Q147.98 9.25 147.98 10.65L147.98 10.65L147.98 10.65Q147.98 11.30 148.16 11.89L148.16 11.89L148.16 11.89Q148.34 12.47 148.76 12.47L148.76 12.47L148.76 12.47Q149.41 12.47 150.23 11.03L150.23 11.03L150.23 11.03Q151.05 9.59 151.31 7.91ZM155.64 10.46L155.64 10.46L155.64 10.46Q155.64 11.47 155.96 12.05L155.96 12.05L155.96 12.05Q156.28 12.63 157.04 12.63L157.04 12.63L157.04 12.63Q157.79 12.63 158.22 12.12L158.22 12.12L158.22 12.12Q158.65 11.61 158.65 10.88L158.65 10.88L158.65 10.88Q159.12 10.88 159.47 11.12L159.47 11.12L159.47 11.12Q159.82 11.35 159.82 11.77L159.82 11.77L159.82 11.77Q159.82 12.64 158.90 13.22L158.90 13.22L158.90 13.22Q157.98 13.80 156.95 13.80L156.95 13.80L156.95 13.80Q155.36 13.80 154.64 12.94L154.64 12.94L154.64 12.94Q153.93 12.08 153.93 10.39L153.93 10.39L153.93 10.39Q153.93 8.69 154.89 7.54L154.89 7.54L154.89 7.54Q155.85 6.38 157.44 6.38L157.44 6.38L157.44 6.38Q158.54 6.38 159.20 6.88L159.20 6.88L159.20 6.88Q159.87 7.38 159.87 8.42L159.87 8.42L159.87 8.42Q159.87 9.46 158.92 9.99L158.92 9.99L158.92 9.99Q157.98 10.51 156.62 10.51L156.62 10.51L156.62 10.51Q156.14 10.51 155.64 10.46ZM155.65 9.35L155.65 9.35L155.65 9.35Q156.07 9.44 156.53 9.44L156.53 9.44L156.53 9.44Q157.54 9.44 158.23 9.06L158.23 9.06L158.23 9.06Q158.31 8.72 158.31 8.53L158.31 8.53L158.31 8.53Q158.31 8.04 157.96 7.78L157.96 7.78L157.96 7.78Q157.61 7.53 157.00 7.53L157.00 7.53L157.00 7.53Q156.39 7.53 155.90 7.92L155.90 7.92L155.90 7.92Q155.65 8.65 155.65 9.35Z"></path></g><!----><g data-v-423bf9ae="" id="c700f392-7701-4607-ad42-94177066f4cb" transform="matrix(3.2119861347827525,0,0,3.2119861347827525,365.47097388134785,-37.52160988355787)" stroke="none" fill="white"><path d="M26.608 27.141h-.04v-2.455c.671.096 1.294.349 1.868.758l.85-1.202c-.854-.583-1.76-.91-2.717-.98v-.665h-.836v.652c-.844.044-1.53.305-2.057.784-.527.479-.79 1.095-.79 1.848 0 .753.229 1.322.686 1.704.457.384 1.177.692 2.161.927v2.534c-.775-.121-1.528-.501-2.26-1.136l-.953 1.136c.95.828 2.02 1.302 3.213 1.424v.953h.836v-.94c.888-.044 1.601-.305 2.141-.784.54-.479.81-1.099.81-1.86s-.235-1.344-.705-1.745c-.47-.4-1.206-.718-2.207-.953zm-.875-.235c-.488-.156-.818-.32-.993-.49-.174-.17-.26-.4-.26-.692 0-.29.11-.535.332-.73.222-.196.53-.312.921-.347v2.26zm1.828 3.813c-.243.201-.574.322-.992.366v-2.35c.522.156.88.324 1.07.502.192.178.288.42.288.725a.94.94 0 0 1-.366.757z"></path><path d="M49.793 27.38c-5.85-7.22-14.51-11.37-23.77-11.37s-17.93 4.15-23.78 11.37c-.3.37-.3.89 0 1.26 5.85 7.23 14.52 11.37 23.78 11.37s17.92-4.14 23.77-11.37c.3-.37.3-.89 0-1.26zm-23.77 8.63c-4.41 0-8-3.59-8-8s3.59-8 8-8 8 3.59 8 8-3.59 8-8 8z"></path><path d="M2.982 23.101a1 1 0 0 0 .685-.27 32.55 32.55 0 0 1 22.354-8.84 32.555 32.555 0 0 1 22.28 8.77 1 1 0 1 0 1.363-1.463A34.55 34.55 0 0 0 26.02 11.99a34.547 34.547 0 0 0-23.724 9.38 1.001 1.001 0 0 0 .685 1.73z"></path></g><!----></svg>